<?xml version="1.0" encoding="utf-8" ?>
<svg baseProfile="full" height="524" version="1.1" viewBox="0 0 460 524" width="460" xmlns="http://www.w3.org/2000/svg" xmlns:ev="http://www.w3.org/2001/xml-events" xmlns:xlink="http://www.w3.org/1999/xlink"><defs /><polygon fill="#9b5cff" points="459,24 430,15 414,4 405,0 392,0 386,3 378,14 375,26 375,43 381,60 387,69 400,82 415,93 427,105 433,119 433,136 428,149 418,159 407,165 396,167 375,164 366,167 360,167 334,151 310,141 291,138 250,139 233,143 210,151 153,179 141,183 123,186 88,186 84,190 87,197 89,198 88,199 83,198 80,195 71,193 57,193 47,195 33,201 24,207 13,218 1,240 0,252 5,253 19,246 24,246 19,262 19,272 21,276 24,278 29,277 39,266 47,260 50,261 46,270 46,284 49,287 52,287 66,278 80,272 93,269 100,269 103,267 112,267 125,276 142,284 191,298 185,307 166,326 144,343 141,343 132,348 125,355 120,372 66,449 59,454 43,458 33,467 31,471 31,479 41,479 38,482 29,502 28,509 30,520 32,523 37,523 46,505 67,483 89,449 137,386 141,382 152,377 160,369 163,359 168,354 210,323 232,315 234,316 233,320 230,322 219,351 220,364 225,370 229,372 237,372 252,363 330,339 338,339 341,342 341,350 347,358 354,357 353,347 355,346 371,361 377,364 384,363 384,359 361,322 351,314 336,314 255,340 249,341 248,339 260,324 267,321 275,314 275,312 280,306 314,305 336,301 352,295 364,288 379,273 385,261 388,248 388,222 392,218 418,202 438,183 454,156 459,136 459,120 457,109 450,93 437,78 417,63 408,54 405,46 408,42 423,37 457,37 459,35 458,33 452,30 450,31 448,29 458,27" /></svg>